# xmcd
#
# Track frame offsets:
#	150
#	14200
#	26590
#	37162
#	50777
#	64235
#	77912
#	92057
#	106612
#	117650
#	129690
#	142187
#	154937
#	171480
#	182365
#	201197
#	211510
#	230457
#	248747
#	266625
#
# Disc length: 3761 seconds
#
# Revision: 1
# Processed by: cddbd v1.5.2PL0 Copyright (c) Steve Scherf et al.
# Submitted via: audiograbber 1.83.01
#
DISCID=2a0eaf14
DTITLE=Randy Travis - This Is Randy Travis
DYEAR=1990
DGENRE=Country
TTITLE0=On The Other Hand
TTITLE1=The Storms Of Life
TTITLE2=My Heart Cracked
TTITLE3=Diggin' Up Bones
TTITLE4=1982
TTITLE5=Send My Body
TTITLE6=Messing Around With My Mind
TTITLE7=There'll Always Be A Honky Tonk Somewhere
TTITLE8=Too Gone Too Long
TTITLE9=Tonight We're Gonna Tear Down The Walls
TTITLE10=Tonight I'm Walking Out On The Blues
TTITLE11=Honky Tonk Moon
TTITLE12=I Told You So
TTITLE13=We Ain't Out Of Love Yet
TTITLE14=Young Guns
TTITLE15=Singing The Blues
TTITLE16=It's Out Of My Hands
TTITLE17=Hard Rock Bottom Of Your Heart
TTITLE18=It's Just A Matter Of Time
TTITLE19=He Walked On Water
EXTD=YEAR: 1990 WEA International Inc.\nWarner Bros. Records Inc.
EXTT0=
EXTT1=
EXTT2=
EXTT3=
EXTT4=
EXTT5=
EXTT6=
EXTT7=
EXTT8=
EXTT9=
EXTT10=
EXTT11=
EXTT12=
EXTT13=
EXTT14=
EXTT15=
EXTT16=
EXTT17=
EXTT18=
EXTT19=
PLAYORDER=
